<svg width="10" height="10" viewBox="0 0 10 10" fill="none" xmlns="http://www.w3.org/2000/svg">
<path fill-rule="evenodd" clip-rule="evenodd" d="M5.5 0C5.22386 0 5 0.223858 5 0.5C5 0.776142 5.22386 1 5.5 1H8.29289L3.14645 6.14645C2.95118 6.34171 2.95118 6.65829 3.14645 6.85355C3.34171 7.04882 3.65829 7.04882 3.85355 6.85355L9 1.70711V4.5C9 4.77614 9.22386 5 9.5 5C9.77614 5 10 4.77614 10 4.5V0.5C10 0.223858 9.77614 0 9.5 0H5.5ZM1 3.5C1 2.67157 1.67157 2 2.5 2H3C3.27614 2 3.5 1.77614 3.5 1.5C3.5 1.22386 3.27614 1 3 1H2.5C1.11929 1 0 2.11929 0 3.5V7.5C0 8.88071 1.11929 10 2.5 10H6.5C7.88071 10 9 8.88071 9 7.5V7C9 6.72386 8.77614 6.5 8.5 6.5C8.22386 6.5 8 6.72386 8 7V7.5C8 8.32843 7.32843 9 6.5 9H2.5C1.67157 9 1 8.32843 1 7.5V3.5Z" fill="#121A24"/>
</svg>
